<svg width="640" height="774" viewBox="0 0 640 774" fill="none" xmlns="http://www.w3.org/2000/svg">
<path d="M458.293 179.137C461.251 174.184 465.629 170.224 470.867 167.766L453.492 156.395C451.939 155.342 450.192 154.604 448.351 154.223C446.511 153.842 444.613 153.825 442.766 154.173C440.92 154.522 439.16 155.229 437.587 156.254C436.015 157.279 434.661 158.602 433.603 160.147C432.545 161.693 431.803 163.43 431.42 165.261C431.037 167.092 431.02 168.98 431.37 170.817C431.72 172.654 432.431 174.405 433.461 175.969C434.491 177.533 435.821 178.88 437.375 179.933L454.407 191.303C454.803 187.016 456.129 182.865 458.293 179.137Z" fill="white"/>
<path d="M310.711 519.127L300.995 557.447C300.058 561.096 300.616 564.966 302.544 568.206C304.473 571.447 307.616 573.793 311.283 574.731C314.981 575.662 318.9 575.095 322.179 573.155C325.457 571.215 327.829 568.06 328.772 564.383L339.174 523.562C339.395 522.282 339.395 520.975 339.174 519.695C334.749 521.938 329.836 523.059 324.871 522.96C319.906 522.861 315.042 521.544 310.711 519.127Z" fill="white"/>
<path d="M639.235 120.582C641.423 138.168 638.899 156.017 631.919 172.32C625.542 188.775 614.892 203.253 601.056 214.279C586.197 226.553 567.94 234.047 548.704 235.77C530.001 237.192 511.192 235.305 493.151 230.198C487.002 228.767 481.302 225.85 476.557 221.705C471.811 217.559 468.167 212.314 465.946 206.433C464.368 202.135 463.796 197.536 464.271 192.985C464.746 188.434 466.257 184.05 468.689 180.166C472.745 173.823 479.153 169.329 486.521 167.658C495.001 165.638 503.885 166.072 512.126 168.909C521.227 171.747 530.707 173.204 540.245 173.23C544.906 173.267 549.508 172.192 553.665 170.095C557.821 167.998 561.412 164.939 564.135 161.177C570.474 152.228 574.408 141.816 575.566 130.93C576.057 125.39 575.342 119.81 573.468 114.571C571.594 109.331 568.605 104.555 564.707 100.57C549.428 83.1967 528.598 71.5913 505.725 67.7075C482.35 63.0694 458.104 65.7714 436.341 75.4398C428.335 79.2617 421.123 84.5461 415.08 91.018C408.439 97.9176 402.61 105.547 397.705 113.76C392.797 122.041 388.956 130.904 386.274 140.14C383.83 148.517 382.825 157.243 383.302 165.952C384.178 183.481 389.699 200.468 399.305 215.189C409.26 229.854 420.756 243.424 433.597 255.669C446.628 268.405 459.888 280.571 473.49 292.397C486.662 303.754 498.44 316.616 508.582 330.717C520.83 347.746 531.468 365.865 540.359 384.843C549.421 403.35 555 423.352 556.82 443.858C558.674 465.855 558.406 487.978 556.019 509.923C554.131 527.98 550.299 545.783 544.589 563.026C539.463 578.032 532.798 592.473 524.7 606.121C516.927 619.084 508.925 631.251 500.809 642.736C478.131 675.117 449.082 702.582 415.423 723.47C381.369 745.259 343.599 760.673 303.974 768.953C276.559 774.191 248.513 775.341 220.759 772.365C192.856 769.65 165.592 762.39 140.058 750.874C114.779 739.379 91.6008 723.777 71.4744 704.707C50.2164 684.759 33.2938 660.688 21.7511 633.98C7.99574 601.564 0.622956 566.823 0.0328596 531.642C-0.546874 496.434 6.55062 461.52 20.8366 429.303C30.6637 407.429 44.0237 387.301 60.3867 369.72C76.3787 352.253 95.2899 337.672 116.283 326.624C135.903 316.081 157.149 308.857 179.151 305.246C201.879 301.464 225.102 301.734 247.735 306.042C269.549 310.402 290.265 319.062 308.66 331.513C327.489 344.242 342.248 362.081 351.182 382.91C356.887 396.711 360.731 411.202 362.613 426.006C364.538 441.178 363.803 456.567 360.441 471.49C357.469 489.342 351.754 500.713 343.067 505.602C339.363 507.923 335.221 509.463 330.896 510.128C326.57 510.793 322.154 510.569 317.919 509.468C313.959 508.38 310.317 506.369 307.296 503.6C304.274 500.831 301.96 497.386 300.545 493.549C296.914 480.366 296.173 466.561 298.373 453.069C299.598 436.749 296.483 420.395 289.342 405.652C285.806 398.295 280.784 391.741 274.589 386.4C268.394 381.059 261.159 377.045 253.336 374.609C232.851 367.62 210.994 365.555 189.553 368.583C167.027 371.518 145.811 380.788 128.399 395.304C110.243 409.793 95.4629 428.027 85.0769 448.748C64.3586 489.468 59.5529 536.383 71.5887 580.423C77.5495 602.566 87.7151 623.37 101.537 641.712C113.784 659.203 129.893 673.673 148.631 684.012C167.239 694.317 187.443 701.465 208.414 705.162C229.737 708.865 251.479 709.554 272.997 707.209C294.551 705.136 315.689 699.965 335.751 691.858C359.46 682.694 381.653 670.046 401.591 654.334C416.898 641.794 430.603 627.435 442.399 611.58C449.943 601.232 457.945 588.838 466.632 575.42C475.736 560.649 482.629 544.637 487.093 527.889C492.083 509.059 494.126 489.575 493.151 470.125C489.841 429.646 473.392 391.333 446.285 360.964C434.931 348.532 423.348 336.441 411.536 324.691C399.305 313.32 387.075 300.812 374.615 288.417C361.965 275.742 350.771 261.708 341.238 246.572C331.409 231.485 324.257 214.831 320.091 197.336C315.745 179.864 314.737 161.735 317.119 143.893C320.45 114.754 332.024 87.1526 350.496 64.2962C367.929 42.441 390.556 25.2466 416.337 14.2641C442.339 3.28851 470.568 -1.46308 498.752 0.391574C522.909 1.93103 546.407 8.86373 567.502 20.6749C588.597 32.4861 606.746 48.8724 620.603 68.6172C631.076 84.1203 637.482 101.985 639.235 120.582Z" fill="white"/>
</svg>
